# xmcd
# 
# Track frame offsets:
#     150
#     21040
#     46653
# 
# Disc length: 898
# 
# Revision: 1
# Processed by: cddbd v1.5.2PL0 Copyright (c) Steve Scherf et al.
# Submitted via: fre:ac v1.0.17
# 
DISCID=16038003
DTITLE=観月ありさ - happy wake up!
DYEAR=1994
DGENRE=J-Pop
TTITLE0=happy wake up!
TTITLE1=close to you
TTITLE2=happy wake up!(オリジナル・カラオケ)
EXTD=
EXTT0=
EXTT1=
EXTT2=
PLAYORDER=
